<svg xmlns="http://www.w3.org/2000/svg" viewBox="0 0 512 512">
  <path d="m 475.42857,201.14286 -164.57143,0 0,-164.571431 C 310.85714,16.377144 294.47999,0 274.28571,0 L 237.71429,0 C 217.52,0 201.14285,16.377144 201.14285,36.571429 l 0,164.571431 -164.57142,0 C 16.377138,201.14286 0,217.52 0,237.71428 l 0,36.57143 c 0,20.19429 16.377138,36.57144 36.57143,36.57144 l 164.57142,0 0,164.57142 C 201.14285,495.62286 217.52,512 237.71429,512 l 36.57142,0 c 20.19428,0 36.57143,-16.37714 36.57143,-36.57143 l 0,-164.57142 164.57143,0 C 495.62286,310.85715 512,294.48 512,274.28571 l 0,-36.57143 C 512,217.52 495.62286,201.14286 475.42857,201.14286 Z"/>
</svg>
