<svg xmlns="http://www.w3.org/2000/svg" viewBox="0 0 512 512">
  <path d="M 511.97929,479.56557 C 499.28728,217.49986 285.74465,7.7369927 23.992782,0.00768973 14.149538,-0.28314465 6.1195642,7.711658 6.25139,17.573905 L 6.9554226,70.006034 C 7.0751974,79.414802 14.631501,87.038525 24.022122,87.35672 238.70973,94.726136 413.35765,266.31179 424.78904,481.20148 c 0.49588,9.39753 8.25737,16.81172 17.6445,16.76095 l 52.35447,-0.29005 c 9.83989,-0.0628 17.66842,-8.25555 17.19128,-18.10681 z M 118.12835,392.7538 c -27.389306,-26.9162 -71.368169,-26.49821 -98.24249,0.93378 -26.8743441,27.43195 -26.4569898,71.47934 0.932298,98.39557 27.389307,26.91622 71.368159,26.49822 98.242502,-0.93375 26.87432,-27.43196 26.45699,-71.47936 -0.93231,-98.3956 z m 220.57746,89.45039 C 326.89285,315.34411 191.25741,182.21894 24.647121,173.56999 14.663523,173.04987 6.4421824,181.10029 6.6060198,191.10065 l 0.8437894,52.5999 c 0.1481989,9.16251 7.3287408,16.82825 16.4762248,17.41013 120.215046,7.60618 217.555896,103.50944 227.396976,223.4693 0.75448,9.14906 8.5356,16.20176 17.6926,16.16852 l 52.52464,-0.15326 c 9.99382,-0.0181 17.87413,-8.41896 17.16556,-18.39105 z"/>
</svg>
