<?xml version="1.0" encoding="UTF-8" standalone="no"?>
<svg
   xmlns:dc="http://purl.org/dc/elements/1.1/"
   xmlns:cc="http://creativecommons.org/ns#"
   xmlns:rdf="http://www.w3.org/1999/02/22-rdf-syntax-ns#"
   xmlns:svg="http://www.w3.org/2000/svg"
   xmlns="http://www.w3.org/2000/svg"
   version="1.1"
   id="svg2"
   viewBox="0 0 640 512">
  <metadata
     id="metadata10">
    <rdf:RDF>
      <cc:Work
         rdf:about="">
        <dc:format>image/svg+xml</dc:format>
        <dc:type
           rdf:resource="http://purl.org/dc/dcmitype/StillImage" />
        <dc:title></dc:title>
      </cc:Work>
    </rdf:RDF>
  </metadata>
  <defs
     id="defs8" />
  <path
     id="path4"
     d="M 570.73788,469.5123 C 558.81569,223.72499 358.22532,26.991684 112.34981,19.742492 103.1036,19.469723 95.560678,26.967923 95.684508,36.21757 l 0.66133,49.175271 c 0.11251,8.824339 7.210492,15.974509 16.031532,16.272939 201.6659,6.91166 365.72069,167.83915 376.45872,369.38082 0.4658,8.8138 7.75652,15.76745 16.57428,15.71983 l 49.17895,-0.27203 c 9.24306,-0.0589 16.59676,-7.74275 16.14856,-16.9821 z M 200.77566,388.09291 c -25.72803,-25.24428 -67.03939,-24.85225 -92.28367,0.87578 -25.244302,25.728 -24.852262,67.03935 0.87575,92.28366 25.72803,25.2443 67.03938,24.85226 92.28368,-0.87575 25.24428,-25.72801 24.85226,-67.03937 -0.87576,-92.28369 z m 207.19851,83.89412 C 396.87771,315.49158 269.46913,190.63557 112.96446,182.52386 c -9.37805,-0.48782 -17.100732,7.06254 -16.946832,16.44172 l 0.79261,49.33262 c 0.13921,8.59338 6.884222,15.78296 15.476872,16.3287 112.9235,7.13371 204.36021,97.07987 213.60439,209.58834 0.70872,8.58077 8.01788,15.19538 16.61947,15.16421 l 49.3388,-0.14375 c 9.38765,-0.017 16.78999,-7.89601 16.1244,-17.24867 z" />
</svg>
