<svg xmlns="http://www.w3.org/2000/svg" viewBox="0 0 512 512">
  <path d="M 512.77709,479.56557 C 500.0653,217.49986 286.18991,7.736993 24.03017,0.00768947 14.171587,-0.28314427 6.1291002,7.711658 6.2611313,17.573906 L 6.966261,70.006034 c 0.1199615,9.408765 7.68804,17.032487 17.093294,17.350687 C 239.0817,94.726136 414.00178,266.31179 425.45098,481.20148 c 0.49665,9.39753 8.27023,16.81172 17.67199,16.76095 l 52.43605,-0.29005 c 9.85523,-0.0628 17.69595,-8.25554 17.21807,-18.10681 z M 118.31242,392.7538 c -27.43198,-26.91619 -71.479374,-26.49821 -98.395573,0.93379 -26.9162212,27.43195 -26.4982165,71.47933 0.933751,98.39556 27.431987,26.91622 71.47937,26.49822 98.395592,-0.93375 26.91619,-27.43196 26.49822,-71.47936 -0.93377,-98.3956 z m 220.92119,89.45039 C 327.40224,315.34412 191.55544,182.21894 24.685527,173.57 14.686373,173.04987 6.452221,181.10029 6.6163138,191.10064 l 0.8451042,52.59991 c 0.1484298,9.16251 7.340161,16.82825 16.501899,17.41014 120.402373,7.60617 217.894903,103.50943 227.751323,223.46929 0.75566,9.14906 8.5489,16.20176 17.72017,16.16853 l 52.60649,-0.15327 c 10.00939,-0.0182 17.90198,-8.41896 17.19231,-18.39105 z"/>
  <circle r="57.293381" cy="60" cx="452" style="fill:#d40c00;fill-opacity:1;stroke:#d40000;stroke-width:5.41323662;stroke-miterlimit:4;stroke-dasharray:none;stroke-opacity:0.36057691" />
</svg>
