<svg xmlns="http://www.w3.org/2000/svg" viewBox="0 0 512 512">
    <path d="m 339.25265,147 5.4947,0 C 354.30532,147 362,154.69468 362,164.25265 l 0,280.4947 C 362,454.30532 354.30532,462 344.74735,462 l -5.4947,0 C 329.69468,462 322,454.30532 322,444.74735 l 0,-280.4947 C 322,154.69468 329.69468,147 339.25265,147 Z m -86,0 5.4947,0 C 268.30532,147 276,154.69468 276,164.25265 l 0,280.4947 C 276,454.30532 268.30532,462 258.74735,462 l -5.4947,0 C 243.69468,462 236,454.30532 236,444.74735 l 0,-280.4947 C 236,154.69468 243.69468,147 253.25265,147 Z m -86,0 5.4947,0 C 182.30532,147 190,154.69468 190,164.25265 l 0,280.4947 C 190,454.30532 182.30532,462 172.74735,462 l -5.4947,0 C 157.69468,462 150,454.30532 150,444.74735 l 0,-280.4947 C 150,154.69468 157.69468,147 167.25265,147 Z M 84.571429,455.11111 C 84.571429,486.4 110.28572,512 141.71429,512 l 228.57143,0 c 31.42857,0 57.14286,-25.6 57.14286,-56.88889 l 0,-341.33333 -342.857151,0 0,341.33333 z M 456.00001,28.444444 l -100,0 L 327.42858,0 184.57143,0 156,28.444444 l -100,0 0,56.888889 400.00001,0 0,-56.888889 z" />
</svg>